<mxfile host="app.diagrams.net" modified="2023-04-26T10:05:06.831Z" agent="Mozilla/5.0 (Windows NT 10.0; Win64; x64) AppleWebKit/537.36 (KHTML, like Gecko) Chrome/112.0.0.0 Safari/537.36 Edg/112.0.1722.58" etag="79GTZVqww2m1tEpn5Zc0" version="21.2.2" type="device">
  <diagram name="Page-1" id="2Q-DC9xAPhLteyneJ8-J">
    <mxGraphModel dx="1040" dy="494" grid="0" gridSize="10" guides="1" tooltips="1" connect="1" arrows="1" fold="1" page="0" pageScale="1" pageWidth="850" pageHeight="1100" math="0" shadow="0">
      <root>
        <mxCell id="0" />
        <mxCell id="1" parent="0" />
        <mxCell id="yBL84TZenaQzVaAMvJ5Z-1" value="Blogging&amp;nbsp;&lt;br&gt;Web&lt;br&gt;Application" style="ellipse;whiteSpace=wrap;html=1;aspect=fixed;fontSize=16;" vertex="1" parent="1">
          <mxGeometry x="443" y="101" width="119" height="119" as="geometry" />
        </mxCell>
        <mxCell id="yBL84TZenaQzVaAMvJ5Z-2" value="Admin" style="ellipse;whiteSpace=wrap;html=1;fontSize=16;" vertex="1" parent="1">
          <mxGeometry x="147" y="126" width="120" height="80" as="geometry" />
        </mxCell>
        <mxCell id="yBL84TZenaQzVaAMvJ5Z-3" value="User" style="ellipse;whiteSpace=wrap;html=1;fontSize=16;" vertex="1" parent="1">
          <mxGeometry x="785" y="110" width="120" height="80" as="geometry" />
        </mxCell>
        <mxCell id="yBL84TZenaQzVaAMvJ5Z-4" value="" style="endArrow=classic;html=1;rounded=0;fontSize=12;startSize=8;endSize=8;curved=1;" edge="1" parent="1">
          <mxGeometry width="50" height="50" relative="1" as="geometry">
            <mxPoint x="786" y="143" as="sourcePoint" />
            <mxPoint x="564" y="146" as="targetPoint" />
          </mxGeometry>
        </mxCell>
        <mxCell id="yBL84TZenaQzVaAMvJ5Z-5" value="Request for Create Post&amp;nbsp;" style="text;html=1;align=center;verticalAlign=middle;resizable=0;points=[];autosize=1;strokeColor=none;fillColor=none;fontSize=16;" vertex="1" parent="1">
          <mxGeometry x="589" y="115" width="194" height="31" as="geometry" />
        </mxCell>
        <mxCell id="yBL84TZenaQzVaAMvJ5Z-6" value="" style="endArrow=classic;html=1;rounded=0;fontSize=12;startSize=8;endSize=8;curved=1;exitX=0.992;exitY=0.681;exitDx=0;exitDy=0;exitPerimeter=0;" edge="1" parent="1">
          <mxGeometry width="50" height="50" relative="1" as="geometry">
            <mxPoint x="561.048" y="172.039" as="sourcePoint" />
            <mxPoint x="791" y="170" as="targetPoint" />
          </mxGeometry>
        </mxCell>
        <mxCell id="yBL84TZenaQzVaAMvJ5Z-7" value="Response&amp;nbsp;" style="text;html=1;align=center;verticalAlign=middle;resizable=0;points=[];autosize=1;strokeColor=none;fillColor=none;fontSize=16;" vertex="1" parent="1">
          <mxGeometry x="623" y="169" width="95" height="31" as="geometry" />
        </mxCell>
        <mxCell id="yBL84TZenaQzVaAMvJ5Z-8" value="" style="endArrow=classic;html=1;rounded=0;fontSize=12;startSize=8;endSize=8;curved=1;exitX=0.983;exitY=0.388;exitDx=0;exitDy=0;exitPerimeter=0;" edge="1" parent="1">
          <mxGeometry width="50" height="50" relative="1" as="geometry">
            <mxPoint x="264.96000000000004" y="152.03999999999996" as="sourcePoint" />
            <mxPoint x="444" y="152" as="targetPoint" />
          </mxGeometry>
        </mxCell>
        <mxCell id="yBL84TZenaQzVaAMvJ5Z-9" value="" style="endArrow=classic;html=1;rounded=0;fontSize=12;startSize=8;endSize=8;curved=1;entryX=0.975;entryY=0.713;entryDx=0;entryDy=0;entryPerimeter=0;exitX=0.025;exitY=0.689;exitDx=0;exitDy=0;exitPerimeter=0;" edge="1" parent="1" source="yBL84TZenaQzVaAMvJ5Z-1" target="yBL84TZenaQzVaAMvJ5Z-2">
          <mxGeometry width="50" height="50" relative="1" as="geometry">
            <mxPoint x="636" y="359" as="sourcePoint" />
            <mxPoint x="575" y="161" as="targetPoint" />
          </mxGeometry>
        </mxCell>
        <mxCell id="yBL84TZenaQzVaAMvJ5Z-10" value="Manage Blogging&amp;nbsp;" style="text;html=1;align=center;verticalAlign=middle;resizable=0;points=[];autosize=1;strokeColor=none;fillColor=none;fontSize=16;" vertex="1" parent="1">
          <mxGeometry x="271" y="123" width="147" height="31" as="geometry" />
        </mxCell>
        <mxCell id="yBL84TZenaQzVaAMvJ5Z-11" value="Response" style="text;html=1;align=center;verticalAlign=middle;resizable=0;points=[];autosize=1;strokeColor=none;fillColor=none;fontSize=16;" vertex="1" parent="1">
          <mxGeometry x="291" y="178" width="90" height="31" as="geometry" />
        </mxCell>
      </root>
    </mxGraphModel>
  </diagram>
</mxfile>
